<svg width="60" height="60" viewBox="0 0 60 60" fill="none" xmlns="http://www.w3.org/2000/svg">
<path d="M19.0163 0.97236C19.2719 0.517251 19.6865 0.189089 20.1689 0.0600646C20.6514 -0.0689596 21.1621 0.0117232 21.5887 0.284364C22.0154 0.557005 22.3231 0.999271 22.444 1.51387C22.565 2.02846 22.4894 2.57324 22.2337 3.02835L12.6862 20.0002H47.3137L37.7625 3.02835C37.5069 2.57324 37.4313 2.02846 37.5522 1.51387C37.6732 0.999271 37.9808 0.557005 38.4075 0.284364C38.8342 0.0117232 39.3449 -0.0689596 39.8273 0.0600646C40.3098 0.189089 40.7244 0.517251 40.98 0.97236L51.6862 20.0002H58.125C58.6223 20.0002 59.0992 20.211 59.4508 20.586C59.8025 20.9611 60 21.4698 60 22.0002V30.0002C60 30.5306 59.8025 31.0393 59.4508 31.4144C59.0992 31.7895 58.6223 32.0002 58.125 32.0002H56.25V52C56.25 54.1218 55.4598 56.1566 54.0533 57.6569C52.6468 59.1572 50.7391 60 48.75 60H11.25C9.26088 60 7.35322 59.1572 5.9467 57.6569C4.54018 56.1566 3.75 54.1218 3.75 52V32.0002H1.875C1.37772 32.0002 0.900806 31.7895 0.549175 31.4144C0.197544 31.0393 0 30.5306 0 30.0002V22.0002C0 21.4698 0.197544 20.9611 0.549175 20.586C0.900806 20.211 1.37772 20.0002 1.875 20.0002H8.31375L19.0163 0.97236ZM13.125 38.0001C13.125 37.4697 12.9275 36.961 12.5758 36.5859C12.2242 36.2109 11.7473 36.0001 11.25 36.0001C10.7527 36.0001 10.2758 36.2109 9.92418 36.5859C9.57254 36.961 9.375 37.4697 9.375 38.0001V50.0001C9.375 50.5305 9.57254 51.0392 9.92418 51.4143C10.2758 51.7893 10.7527 52 11.25 52C11.7473 52 12.2242 51.7893 12.5758 51.4143C12.9275 51.0392 13.125 50.5305 13.125 50.0001V38.0001ZM22.5 38.0001C22.5 37.4697 22.3025 36.961 21.9508 36.5859C21.5992 36.2109 21.1223 36.0001 20.625 36.0001C20.1277 36.0001 19.6508 36.2109 19.2992 36.5859C18.9475 36.961 18.75 37.4697 18.75 38.0001V50.0001C18.75 50.5305 18.9475 51.0392 19.2992 51.4143C19.6508 51.7893 20.1277 52 20.625 52C21.1223 52 21.5992 51.7893 21.9508 51.4143C22.3025 51.0392 22.5 50.5305 22.5 50.0001V38.0001ZM31.875 38.0001C31.875 37.4697 31.6775 36.961 31.3258 36.5859C30.9742 36.2109 30.4973 36.0001 30 36.0001C29.5027 36.0001 29.0258 36.2109 28.6742 36.5859C28.3225 36.961 28.125 37.4697 28.125 38.0001V50.0001C28.125 50.5305 28.3225 51.0392 28.6742 51.4143C29.0258 51.7893 29.5027 52 30 52C30.4973 52 30.9742 51.7893 31.3258 51.4143C31.6775 51.0392 31.875 50.5305 31.875 50.0001V38.0001ZM41.25 38.0001C41.25 37.4697 41.0525 36.961 40.7008 36.5859C40.3492 36.2109 39.8723 36.0001 39.375 36.0001C38.8777 36.0001 38.4008 36.2109 38.0492 36.5859C37.6975 36.961 37.5 37.4697 37.5 38.0001V50.0001C37.5 50.5305 37.6975 51.0392 38.0492 51.4143C38.4008 51.7893 38.8777 52 39.375 52C39.8723 52 40.3492 51.7893 40.7008 51.4143C41.0525 51.0392 41.25 50.5305 41.25 50.0001V38.0001ZM50.625 38.0001C50.625 37.4697 50.4275 36.961 50.0758 36.5859C49.7242 36.2109 49.2473 36.0001 48.75 36.0001C48.2527 36.0001 47.7758 36.2109 47.4242 36.5859C47.0725 36.961 46.875 37.4697 46.875 38.0001V50.0001C46.875 50.5305 47.0725 51.0392 47.4242 51.4143C47.7758 51.7893 48.2527 52 48.75 52C49.2473 52 49.7242 51.7893 50.0758 51.4143C50.4275 51.0392 50.625 50.5305 50.625 50.0001V38.0001Z" fill="#96CEE1"/>
</svg>
